<svg viewBox="0 0 32 32" xmlns="http://www.w3.org/2000/svg">
  <!-- Create a stone brick "N" for favicon -->
  <defs>
    <!-- Brick texture pattern -->
    <pattern id="brickTexture" patternUnits="userSpaceOnUse" width="4" height="4">
      <rect width="4" height="4" fill="#c4a484"/>
      <rect x="0" y="0" width="1" height="1" fill="#d4b494"/>
      <rect x="2" y="1" width="1" height="1" fill="#d4b494"/>
      <rect x="1" y="2" width="1" height="1" fill="#d4b494"/>
      <rect x="3" y="3" width="1" height="1" fill="#d4b494"/>
    </pattern>
  </defs>
  
  <!-- Dark background -->
  <rect width="32" height="32" fill="#000000"/>
  
  <!-- Stone brick "N" letter -->
  <g fill="url(#brickTexture)" stroke="#a68b6b" stroke-width="0.5">
    <!-- Left vertical column -->
    <rect x="5" y="6" width="4" height="20" rx="0.5"/>
    
    <!-- Right vertical column -->
    <rect x="23" y="6" width="4" height="20" rx="0.5"/>
    
    <!-- Diagonal middle section -->
    <path d="M9 6 L23 26 L27 26 L27 22 L15 6 Z" rx="0.5"/>
    
    <!-- Small connecting blocks for 3D effect -->
    <rect x="8" y="8" width="2" height="3" rx="0.3"/>
    <rect x="22" y="20" width="2" height="3" rx="0.3"/>
  </g>
  
  <!-- Shadow/depth effects -->
  <g fill="#8b7355" opacity="0.6">
    <rect x="6" y="25" width="4" height="2"/>
    <rect x="24" y="25" width="4" height="2"/>
    <path d="M10 25 L24 25 L26 27 L12 27 Z"/>
  </g>
</svg>